<svg xmlns="http://www.w3.org/2000/svg" viewBox="0 0 1584 396">
  <path fill="#dbd3e9" fill-rule="evenodd" d="M80.5 154.5h1422a6 6 0 0 1 6 6v74a6 6 0 0 1-6 6H80.5a6 6 0 0 1-6-6v-74a6 6 0 0 1 6-6z" opacity=".5"/>
  <path fill="#dbd3e9" fill-rule="evenodd" d="M518.5 154.5h3v86h-3zm330 0h3v86h-3zm328 0h3v86h-3z"/>
  <path fill="#675f76" fill-rule="evenodd" d="M1428.5 158.5v4h16v-4zm-42 4h36v-4h-36zm-40 74h54v-4h-54zm34-16h-76v4h76zm-116-10h38v-4h-38zm-42 0h38v-4h-38zm-40 14h52v-4h-52zm16-18h-56v4h56zm-140 4h60v-4h-60zm98-16h-56v4h56zm-68 0h-70v4h70zm-64-12h-48v4h48zm-88 16h44v-4h-44zm-84 0h80v-4h-80zm-40 12h74v-4h-74zm6-16h-48v4h48zm-88 4h38v-4h-38zm8-16h-50v4h50zm-46-12h-46v4h46zm-86 4h36v-4h-36zm2-16h-44v4h44zm-84 78h72v-4h-72zm4-16h-44v4h44zm-86 16h42v-4h-42zm6-18h-46v4h46zm-88-8h40v-4h-40zm12-16h-54v4h54zm-44-12h-50v4h50zm-92 16h54v-4h-54zm-42 0h26v-4h-26z"/>
  <path fill="#ffd309" fill-rule="evenodd" d="M80.5 154.5h84v86h-84a6 6 0 0 1-6-6v-74a6 6 0 0 1 6-6z"/>
  <path fill="#b9b2d0" fill-rule="evenodd" d="M174.5 154.5h8v86h-8z"/>
  <path fill="#fff" d="M146.92 170.08v54.83H92.08v-54.8h54.83m3.4-3.4H88.7v61.7h61.6v-61.6z"/>
  <path fill="#fff" d="M128.92 212.92a5.6 5.6 0 0 0 5.08 3.13c2.14 0 3.5-1.07 3.5-2.54 0-1.7-1.4-2.3-3.75-3.4l-1.3-.5c-3.7-1.6-6.18-3.5-6.18-7.7 0-3.8 2.94-6.8 7.55-6.8a7.62 7.62 0 0 1 7.33 4.1l-4 2.6c-.88-1.6-1.84-2.2-3.32-2.2a2.24 2.24 0 0 0-2.47 2.2c0 1.6 1 2.2 3.17 3.2l1.3.6c4.37 1.9 6.84 3.8 6.84 8.1 0 4.7-3.64 7.2-8.54 7.2s-7.88-2.3-9.4-5.2zm-18.2.45c.8 1.44 1.55 2.65 3.32 2.65s2.76-.66 2.76-3.24v-17.52h5.15v17.6c0 5.33-3.13 7.75-7.7 7.75a8 8 0 0 1-7.72-4.7z"/>
  <path fill="#564f64" d="M148.57 98.3l-2.24 6.8h-2.88l7.33-21.58h3.36l7.36 21.57h-3l-2.3-6.8zm7.07-2.17l-2.1-6.2c-.5-1.42-.8-2.7-1.13-3.95-.3 1.28-.6 2.6-1.1 3.9l-2.1 6.24zm29.06-6.53c-.06 1.13-.13 2.38-.13 4.27v9c0 3.55-.7 5.73-2.2 7.07a8.2 8.2 0 0 1-5.64 1.86 10 10 0 0 1-5.15-1.28l.7-2.14a8.73 8.73 0 0 0 4.54 1.22c2.88 0 5-1.5 5-5.4v-1.74h-.06a5.53 5.53 0 0 1-4.93 2.6c-3.84 0-6.6-3.27-6.6-7.56 0-5.25 3.43-8.22 7-8.22a5.15 5.15 0 0 1 4.77 2.66h.06l.13-2.34zm-2.9 6.12a4 4 0 0 0-.17-1.28 4.06 4.06 0 0 0-3.94-3c-2.7 0-4.7 2.27-4.7 5.86 0 3 1.5 5.57 4.6 5.57a4.12 4.12 0 0 0 3.9-2.88 4.9 4.9 0 0 0 .2-1.5zm7.25-1.28c0-1.82 0-3.4-.13-4.83h2.46l.1 3h.13a4.65 4.65 0 0 1 4.3-3.3 3 3 0 0 1 .8.1V92a4.23 4.23 0 0 0-1-.1c-2 0-3.4 1.5-3.7 3.62a7.93 7.93 0 0 0-.1 1.3v8.27H189zm24.15 2.78c0 5.73-4 8.22-7.7 8.22-4.2 0-7.42-3.07-7.42-8 0-5.18 3.4-8.22 7.68-8.22 4.44.04 7.45 3.27 7.45 8zm-12.28.16c0 3.4 2 6 4.7 6s4.7-2.53 4.7-6c0-2.62-1.3-6-4.64-6s-4.76 3.06-4.76 6zm28.8 3.5c0 1.6 0 3 .13 4.2h-2.5l-.16-2.53h-.1a5.83 5.83 0 0 1-5.1 2.88c-2.5 0-5.4-1.34-5.4-6.78V89.6h2.8v8.6c0 2.93.9 4.92 3.4 4.92a4.07 4.07 0 0 0 3.7-2.56 4.12 4.12 0 0 0 .2-1.44v-9.5h2.8zm4.68-6.22c0-2-.07-3.58-.14-5.06h2.53l.1 2.66h.1a6.1 6.1 0 0 1 5.5-3c3.7 0 6.5 3.17 6.5 7.87 0 5.57-3.4 8.32-7 8.32a5.43 5.43 0 0 1-4.8-2.43h-.1v8.42h-2.8zm2.77 4.13a6.34 6.34 0 0 0 .13 1.1 4.34 4.34 0 0 0 4.22 3.3c3 0 4.7-2.5 4.7-6 0-3.1-1.63-5.8-4.6-5.8a4.5 4.5 0 0 0-4.25 3.5 4.58 4.58 0 0 0-.2 1.1zm18.57-13.6a1.74 1.74 0 0 1-3.5 0 1.72 1.72 0 0 1 1.76-1.7 1.67 1.67 0 0 1 1.74 1.7zM252.6 105V89.6h2.82v15.5zm7.5-11.3c0-1.6 0-2.9-.14-4.2h2.5l.16 2.56h.06a5.7 5.7 0 0 1 5.12-2.9c2.14 0 5.47 1.27 5.47 6.6V105h-2.82v-8.9c0-2.5-.93-4.57-3.58-4.57a4 4 0 0 0-3.78 2.86 4 4 0 0 0-.2 1.3v9.3H260zm31.1-4.2c-.07 1.12-.14 2.37-.14 4.26v9c0 3.55-.7 5.73-2.2 7.07a8.2 8.2 0 0 1-5.64 1.86 10 10 0 0 1-5.15-1.3l.7-2.2a8.73 8.73 0 0 0 4.54 1.2c2.9 0 5-1.5 5-5.4v-1.8a5.53 5.53 0 0 1-4.9 2.6c-3.8 0-6.6-3.3-6.6-7.6 0-5.3 3.5-8.3 7-8.3a5.15 5.15 0 0 1 4.9 2.7h.1l.2-2.4zm-2.92 6.1a4 4 0 0 0-.16-1.27 4.06 4.06 0 0 0-3.94-3c-2.7 0-4.6 2.27-4.6 5.86 0 3 1.53 5.5 4.57 5.5a4.12 4.12 0 0 0 3.9-2.9 4.9 4.9 0 0 0 .22-1.5zm28.26 1.5c0 5.74-4 8.23-7.7 8.23-4.2 0-7.43-3.07-7.43-8 0-5.18 3.4-8.2 7.7-8.2 4.5.03 7.5 3.26 7.5 8zm-12.3.17c0 3.4 2 6 4.7 6s4.7-2.53 4.7-6c0-2.6-1.3-6-4.63-6s-4.7 3.06-4.7 6zm16.14 7.72V91.7h-2.18v-2.1h2.18v-.73c0-2.18.48-4.16 1.8-5.4a5.4 5.4 0 0 1 3.76-1.47 6.54 6.54 0 0 1 2.4.45l-.34 2.2a4.2 4.2 0 0 0-1.8-.35c-2.4 0-3 2.1-3 4.48v.83h3.75v2.2h-3.74v13.4zm12.06 4.4a4.56 4.56 0 0 0 3.07-1.2c.8-.9 1.1-2.1 1.1-5.9v-13h2.8v14c0 3-.5 5-1.8 6.3a7.15 7.15 0 0 1-4.8 1.8zm7.26-24.3a1.65 1.65 0 0 1-1.76 1.7 1.68 1.68 0 0 1-1.74-1.8 1.72 1.72 0 0 1 1.8-1.8 1.66 1.66 0 0 1 1.7 1.7zm12.87 19.9l-.22-2h-.1a5.77 5.77 0 0 1-4.74 2.3 4.4 4.4 0 0 1-4.7-4.5c0-3.8 3.4-5.8 9.3-5.8v-.4c0-1.3-.3-3.6-3.5-3.6a7.7 7.7 0 0 0-4 1.1l-.6-1.9a9.6 9.6 0 0 1 5.1-1.3c4.8 0 5.9 3.2 5.9 6.3v5.8a21.76 21.76 0 0 0 .3 3.7zm-.42-7.9c-3.07-.1-6.56.4-6.56 3.5a2.5 2.5 0 0 0 2.6 2.6 3.85 3.85 0 0 0 3.7-2.6 2.94 2.94 0 0 0 .1-.9zm8.1-7.6l3 8.7a39.76 39.76 0 0 1 1.25 4h.1c.35-1.3.8-2.6 1.3-4l3-8.7h2.95l-6.08 15.5h-2.7l-5.88-15.5zM383 105.1l-.22-2h-.1a5.77 5.77 0 0 1-4.74 2.3 4.4 4.4 0 0 1-4.74-4.45c0-3.74 3.33-5.8 9.3-5.76v-.4c0-1.3-.34-3.6-3.5-3.6a7.7 7.7 0 0 0-4 1.1l-.65-1.9a9.6 9.6 0 0 1 5.1-1.4c4.73 0 5.88 3.2 5.88 6.3v5.8a21.76 21.76 0 0 0 .26 3.7zm-.42-7.9c-3.07-.06-6.56.48-6.56 3.5a2.5 2.5 0 0 0 2.66 2.68 3.85 3.85 0 0 0 3.74-2.6 2.94 2.94 0 0 0 .16-.9zm6.88 5.02a7.38 7.38 0 0 0 3.7 1.12c2 0 3-1 3-2.3s-.8-2.08-2.87-2.85c-2.8-1-4.1-2.6-4.1-4.4 0-2.5 2-4.6 5.3-4.6a7.73 7.73 0 0 1 3.8 1l-.7 2a6 6 0 0 0-3.2-.9c-1.7 0-2.6 1-2.6 2.1s.9 1.8 2.9 2.6c2.7 1 4 2.3 4 4.6 0 2.7-2.1 4.6-5.8 4.6a8.83 8.83 0 0 1-4.4-1.1zm24.1 2.3a10.37 10.37 0 0 1-4.45.9c-4.6 0-7.7-3.17-7.7-7.9s3.3-8.22 8.4-8.22a9.4 9.4 0 0 1 3.9.8l-.6 2.16a6.53 6.53 0 0 0-3.2-.74c-3.5 0-5.4 2.62-5.4 5.86 0 3.58 2.3 5.8 5.4 5.8a8 8 0 0 0 3.5-.78zm3.3-10.08c0-1.82 0-3.4-.13-4.83h2.46l.1 3h.1a4.65 4.65 0 0 1 4.3-3.3 3 3 0 0 1 .8.1V92a4.23 4.23 0 0 0-1-.1c-2 0-3.4 1.5-3.8 3.62a7.93 7.93 0 0 0-.1 1.3v8.27h-2.8zm13.72-9.18a1.74 1.74 0 0 1-3.5 0 1.72 1.72 0 0 1 1.77-1.76 1.67 1.67 0 0 1 1.73 1.76zm-3.14 19.84V89.6h2.82v15.5zm7.5-10.44c0-2-.06-3.58-.13-5.06h2.6l.2 2.66h.1a6.1 6.1 0 0 1 5.5-3c3.8 0 6.6 3.17 6.6 7.87 0 5.57-3.4 8.32-7 8.32a5.43 5.43 0 0 1-4.7-2.43h-.1v8.42h-3zm2.78 4.13a6.34 6.34 0 0 0 .13 1.1 4.34 4.34 0 0 0 4.22 3.3c3 0 4.7-2.5 4.7-6 0-3.1-1.63-5.8-4.6-5.8a4.5 4.5 0 0 0-4.27 3.6 4.58 4.58 0 0 0-.18 1.1zm18.8-13.7v4.4h4v2.1h-4v8.4c0 1.9.55 3 2.1 3a6.28 6.28 0 0 0 1.65-.2l.13 2.1a6.9 6.9 0 0 1-2.5.4 3.9 3.9 0 0 1-3-1.2c-.8-.8-1.1-2.2-1.1-4v-8.4h-2.4v-2.1h2.4v-3.7zm15.58 12.7c.05 3.8 2.5 5.4 5.3 5.4a10.2 10.2 0 0 0 4.3-.8l.47 2a12.54 12.54 0 0 1-5.15 1c-4.77 0-7.62-3.2-7.62-7.8s2.75-8.4 7.26-8.4c5.06 0 6.4 4.4 6.4 7.3a10.57 10.57 0 0 1-.1 1.3zm8.25-2c0-1.8-.74-4.6-3.9-4.6-2.85 0-4.1 2.6-4.32 4.6zm6.2-1.4c0-1.8 0-3.4-.13-4.9h2.46l.1 3h.13a4.65 4.65 0 0 1 4.3-3.4 3 3 0 0 1 .8.1V92a4.23 4.23 0 0 0-1-.1c-2 0-3.4 1.5-3.7 3.62a7.93 7.93 0 0 0-.1 1.3v8.27h-2.8zm10.6 0c0-1.8 0-3.4-.14-4.9h2.5l.1 3h.2a4.65 4.65 0 0 1 4.3-3.4 3 3 0 0 1 .8.1V92a4.23 4.23 0 0 0-1-.1c-2 0-3.4 1.5-3.7 3.62a7.93 7.93 0 0 0-.1 1.3v8.27h-2.8zm24.15 2.8c0 5.7-4 8.2-7.7 8.2-4.2 0-7.43-3.1-7.43-8 0-5.2 3.4-8.2 7.68-8.2 4.44 0 7.45 3.3 7.45 8zm-12.3.1c0 3.4 2 6 4.7 6s4.7-2.6 4.7-6c0-2.6-1.3-6-4.64-6s-4.76 3-4.76 6zm15.85-3c0-1.8 0-3.4-.13-4.9h2.46l.1 3h.13a4.65 4.65 0 0 1 4.3-3.4 3 3 0 0 1 .8.1V92a4.23 4.23 0 0 0-1-.1c-2 0-3.4 1.5-3.7 3.62a7.93 7.93 0 0 0-.1 1.3v8.27h-2.8zm10.08 7.8a7.38 7.38 0 0 0 3.7 1.1c2 0 3-1 3-2.3s-.8-2.1-2.87-2.9c-2.78-1-4.1-2.6-4.1-4.4 0-2.5 2-4.6 5.34-4.6a7.73 7.73 0 0 1 3.8 1l-.7 2a6 6 0 0 0-3.16-.9c-1.66 0-2.6 1-2.6 2.1s.94 1.9 2.95 2.6c2.6 1 4 2.3 4 4.6 0 2.7-2.1 4.6-5.8 4.6a8.83 8.83 0 0 1-4.4-1.1zM766.1 72.5h-8.4v7.78h9.3v2.34h-12.08V61h11.65v2.34h-8.87v6.82h8.38zm4.47-.54c0-1.82 0-3.4-.13-4.83h2.46l.1 3h.13a4.65 4.65 0 0 1 4.3-3.36 3 3 0 0 1 .8.1v2.66a4.23 4.23 0 0 0-1-.1c-2 0-3.4 1.5-3.8 3.6a7.93 7.93 0 0 0-.12 1.3v8.3h-2.7zm10.6 0c0-1.82 0-3.4-.14-4.83h2.46l.1 3h.1a4.65 4.65 0 0 1 4.3-3.32 3 3 0 0 1 .8.1v2.7a4.23 4.23 0 0 0-1-.1c-2 0-3.4 1.5-3.8 3.6a7.93 7.93 0 0 0-.2 1.3v8.3H781zm24.15 2.78c0 5.73-4 8.22-7.7 8.22-4.2 0-7.43-3.07-7.43-8 0-5.18 3.3-8.22 7.6-8.22 4.4.04 7.4 3.28 7.4 8zM793 74.9c0 3.4 2 6 4.7 6s4.7-2.53 4.7-6c0-2.62-1.3-6-4.63-6s-4.77 3.06-4.77 6zm15.87-2.94c0-1.82 0-3.4-.13-4.83h2.46l.1 3h.13a4.65 4.65 0 0 1 4.3-3.36 3.05 3.05 0 0 1 .8.1v2.66a4.23 4.23 0 0 0-1-.1c-2 0-3.4 1.5-3.8 3.6a8 8 0 0 0-.12 1.3v8.3h-2.7zM819 79.72a7.38 7.38 0 0 0 3.7 1.12c2 0 3-1 3-2.3s-.8-2.08-2.87-2.85c-2.78-1-4.1-2.6-4.1-4.4 0-2.5 2-4.6 5.34-4.6a7.73 7.73 0 0 1 3.8 1l-.7 2a6 6 0 0 0-3.17-.9c-1.66 0-2.6 1-2.6 2.1s.94 1.8 2.95 2.6c2.7 1 4.06 2.3 4.06 4.6 0 2.7-2.1 4.6-5.7 4.6a8.84 8.84 0 0 1-4.3-1.1zm28.37 2.88l-.22-2H847a5.77 5.77 0 0 1-4.74 2.3 4.4 4.4 0 0 1-4.73-4.45c0-3.74 3.33-5.8 9.3-5.76v-.4c0-1.3-.34-3.6-3.5-3.6a7.7 7.7 0 0 0-4 1.1l-.65-1.9a9.6 9.6 0 0 1 5.1-1.4c4.73 0 5.88 3.2 5.88 6.3v5.8a21.76 21.76 0 0 0 .26 3.7zm-.42-7.9c-3.07-.06-6.56.48-6.56 3.5a2.5 2.5 0 0 0 2.6 2.67 3.85 3.85 0 0 0 3.7-2.6 3 3 0 0 0 .1-.9zm7.25-2.76c0-1.82 0-3.4-.12-4.83h2.46l.1 3h.13a4.65 4.65 0 0 1 4.3-3.3 3.05 3.05 0 0 1 .8.1v2.7a4.24 4.24 0 0 0-1-.1c-2 0-3.4 1.5-3.8 3.6a7.88 7.88 0 0 0-.12 1.3v8.3h-2.78zm11.73 3.42c.06 3.8 2.5 5.38 5.3 5.38a10.2 10.2 0 0 0 4.3-.8l.48 2a12.53 12.53 0 0 1-5.1 1c-4.7 0-7.6-3.14-7.6-7.8s2.8-8.36 7.3-8.36c5.1 0 6.4 4.45 6.4 7.3a10.78 10.78 0 0 1-.1 1.3zm8.25-2c0-1.8-.74-4.58-3.9-4.58-2.85 0-4.1 2.62-4.32 4.58zm23.55 6.84h-.06a5.5 5.5 0 0 1-5.06 2.75c-3.6 0-6.5-3.14-6.5-7.84 0-5.7 3.8-8.3 7-8.3a5.1 5.1 0 0 1 4.8 2.7h.1l.1-2.3h2.7c0 1.3-.1 2.7-.1 4.3V89h-2.8zm0-6.82a4.77 4.77 0 0 0-.13-1.18 4.12 4.12 0 0 0-4-3.2c-2.9 0-4.67 2.46-4.67 6 0 3.07 1.47 5.76 4.58 5.76a4.2 4.2 0 0 0 4-3.07 4.7 4.7 0 0 0 .3-1.4zm20.42 5c0 1.6 0 3 .13 4.2h-2.5l-.16-2.53h-.06a5.83 5.83 0 0 1-5.12 2.88c-2.43 0-5.34-1.34-5.34-6.78V67.1h2.82v8.6c0 2.93.9 4.92 3.46 4.92a4.07 4.07 0 0 0 3.7-2.56 4.12 4.12 0 0 0 .27-1.44v-9.5h2.82zm13.25 4.22l-.22-2h-.1a5.77 5.77 0 0 1-4.74 2.3 4.4 4.4 0 0 1-4.74-4.45c0-3.74 3.33-5.8 9.3-5.76v-.4c0-1.3-.34-3.6-3.5-3.6a7.72 7.72 0 0 0-4 1.1l-.65-1.9a9.6 9.6 0 0 1 5.1-1.4c4.72 0 5.88 3.2 5.88 6.3v5.8a21.87 21.87 0 0 0 .27 3.8zm-.42-7.9c-3.07-.06-6.56.48-6.56 3.5a2.5 2.5 0 0 0 2.66 2.68 3.85 3.85 0 0 0 3.74-2.6 2.94 2.94 0 0 0 .16-.9zm7.27-3.4c0-1.6 0-2.9-.13-4.2h2.5l.16 2.57h.06a5.7 5.7 0 0 1 5.16-2.9c2.14 0 5.47 1.27 5.47 6.58v9.25h-2.82v-8.93c0-2.5-.93-4.58-3.58-4.58a4 4 0 0 0-3.82 2.9 4 4 0 0 0-.2 1.3v9.3h-2.8zm21.02-8.64v4.45h4v2.2h-4v8.4c0 2 .54 3 2.1 3a6.3 6.3 0 0 0 1.64-.2l.2 2.2a6.88 6.88 0 0 1-2.5.4 3.9 3.9 0 0 1-3-1.1c-.8-.8-1.1-2.2-1.1-4v-8.5h-2.4v-2.2h2.4v-3.7zm10.33.1a1.74 1.74 0 0 1-3.48 0 1.72 1.72 0 0 1 1.76-1.76 1.67 1.67 0 0 1 1.73 1.76zm-3.13 19.84V67.1h2.82v15.5zm5.73-1.6l7-9.12c.67-.83 1.3-1.57 2-2.4v-.06h-8.38v-2.3h11.8v1.75l-6.9 9c-.64.86-1.28 1.63-2 2.43v.06h9.06v2.24H972.2zm16.8-5.64c.06 3.8 2.5 5.38 5.3 5.38a10.2 10.2 0 0 0 4.3-.8l.48 2a12.53 12.53 0 0 1-5.15 1c-4.77 0-7.62-3.14-7.62-7.8s2.8-8.36 7.3-8.36c5.1 0 6.4 4.45 6.4 7.3a10.78 10.78 0 0 1-.1 1.3zm8.25-2c0-1.8-.74-4.58-3.9-4.58-2.85 0-4.1 2.62-4.32 4.58zm19.6-13.48V78.6c0 1.38 0 2.94.12 4h-2.53l-.13-2.7a5.73 5.73 0 0 1-5.3 3c-3.7 0-6.6-3.16-6.6-7.86 0-5.15 3.2-8.32 7-8.32a5.18 5.18 0 0 1 4.7 2.37h.1v-9.3zM1014 73.4a5 5 0 0 0-.13-1.17 4.14 4.14 0 0 0-4.06-3.26c-2.9 0-4.6 2.56-4.6 6 0 3.14 1.6 5.73 4.6 5.73a4.23 4.23 0 0 0 4.2-3.36 4.9 4.9 0 0 0 .2-1.22zm17.68-10.74v4.45h4v2.2h-4v8.4c0 2 .54 3 2.1 3a6.27 6.27 0 0 0 1.64-.2l.13 2.2a6.9 6.9 0 0 1-2.5.4 3.9 3.9 0 0 1-3-1.1c-.8-.8-1.1-2.2-1.1-4v-8.5h-2.4v-2.2h2.4v-3.7zm21.02 12.06c0 5.73-4 8.22-7.7 8.22-4.2 0-7.42-3.07-7.42-8 0-5.18 3.4-8.22 7.68-8.22 4.44.04 7.45 3.28 7.45 8zm-12.28.16c0 3.4 2 6 4.7 6s4.7-2.53 4.7-6c0-2.62-1.3-6-4.63-6s-4.8 3.06-4.8 6zm29.18-7.78c-.06 1.13-.13 2.38-.13 4.27v9c0 3.55-.7 5.73-2.2 7.07a8.2 8.2 0 0 1-5.64 1.86 10 10 0 0 1-5.15-1.28l.7-2.14a8.73 8.73 0 0 0 4.54 1.22c2.88 0 5-1.5 5-5.4v-1.76h-.06a5.53 5.53 0 0 1-4.93 2.6c-3.84 0-6.6-3.27-6.6-7.56 0-5.25 3.43-8.22 7-8.22a5.15 5.15 0 0 1 4.84 2.7h.06l.13-2.35zm-2.9 6.12a4 4 0 0 0-.17-1.28 4.05 4.05 0 0 0-3.94-3c-2.7 0-4.7 2.27-4.7 5.86 0 3 1.5 5.57 4.6 5.57a4.12 4.12 0 0 0 3.9-2.88 4.9 4.9 0 0 0 .2-1.5zm9.02 2.14c.06 3.8 2.5 5.38 5.3 5.38a10.2 10.2 0 0 0 4.3-.8l.48 2a12.53 12.53 0 0 1-5.15 1c-4.77 0-7.62-3.14-7.62-7.8s2.75-8.36 7.26-8.36c5 0 6.4 4.45 6.4 7.3a10.78 10.78 0 0 1-.1 1.3zm8.25-2c0-1.8-.74-4.58-3.9-4.58-2.85 0-4.1 2.62-4.32 4.58zm9.6-10.7v4.45h4v2.2h-4v8.4c0 2 .54 3 2.1 3a6.28 6.28 0 0 0 1.64-.2l.2 2.2a6.9 6.9 0 0 1-2.5.4 3.9 3.9 0 0 1-3-1.1c-.8-.8-1.1-2.2-1.1-4v-8.5h-2.4v-2.2h2.4v-3.7zm7.2-2.78h2.82v9.66a5.22 5.22 0 0 1 2-2 5.8 5.8 0 0 1 2.9-.8c2.1 0 5.4 1.28 5.4 6.62v9.24h-2.8v-8.9c0-2.5-1-4.6-3.6-4.6a4 4 0 0 0-3.8 2.8 3.4 3.4 0 0 0-.2 1.35v9.35h-2.8zm19.33 15.48c.06 3.8 2.5 5.38 5.3 5.38a10.2 10.2 0 0 0 4.3-.8l.48 2a12.53 12.53 0 0 1-5.15 1c-4.77 0-7.62-3.14-7.62-7.8s2.8-8.36 7.3-8.36c5.1 0 6.4 4.45 6.4 7.3a10.6 10.6 0 0 1-.1 1.3zm8.26-2c0-1.8-.74-4.58-3.9-4.58-2.85 0-4.1 2.62-4.32 4.58zm6.2-1.42c0-1.82 0-3.4-.13-4.83h2.46l.1 3h.1a4.65 4.65 0 0 1 4.3-3.3 3.05 3.05 0 0 1 .8.1v2.7a4.23 4.23 0 0 0-1-.1c-2 0-3.4 1.5-3.8 3.6a8 8 0 0 0-.1 1.3v8.3h-2.8zm31.27 2.78c0 5.73-4 8.22-7.7 8.22-4.2 0-7.43-3.07-7.43-8 0-5.18 3.4-8.22 7.68-8.22 4.44.04 7.45 3.28 7.45 8zm-12.3.16c0 3.4 2 6 4.7 6s4.7-2.53 4.7-6c0-2.62-1.3-6-4.63-6s-4.76 3.06-4.76 6zm15.85-3.58c0-1.6 0-2.9-.13-4.2h2.5l.16 2.57h.1a5.7 5.7 0 0 1 5.1-2.9c2.2 0 5.5 1.27 5.5 6.58v9.25h-2.8v-8.93c0-2.5-.9-4.58-3.6-4.58a4 4 0 0 0-3.8 2.8 4 4 0 0 0-.2 1.3v9.3h-2.8zm21.02-8.64v4.45h4v2.2h-4v8.4c0 2 .54 3 2.1 3a6.3 6.3 0 0 0 1.64-.2l.13 2.2a6.88 6.88 0 0 1-2.5.4 3.9 3.9 0 0 1-3-1.1c-.8-.8-1.1-2.2-1.1-4v-8.5h-2.4v-2.2h2.4v-3.7zm21.03 12.06c0 5.73-4 8.22-7.7 8.22-4.2 0-7.43-3.07-7.43-8 0-5.18 3.4-8.22 7.68-8.22 4.44.04 7.45 3.28 7.45 8zm-12.3.16c0 3.4 2 6 4.7 6s4.7-2.53 4.7-6c0-2.62-1.3-6-4.63-6s-4.76 3.06-4.76 6zm26.02-12.22v4.45h4v2.2h-4v8.4c0 2 .54 3 2.1 3a6.28 6.28 0 0 0 1.64-.2l.1 2.2a6.9 6.9 0 0 1-2.5.4 3.9 3.9 0 0 1-3-1.1c-.8-.8-1.1-2.2-1.1-4v-8.5h-2.4v-2.2h2.4v-3.7zm7.2-2.78h2.82v9.66h.06a5.22 5.22 0 0 1 2-2 5.8 5.8 0 0 1 2.88-.8c2.1 0 5.5 1.28 5.5 6.62v9.24h-2.8v-8.9c0-2.5-.9-4.6-3.5-4.6a4 4 0 0 0-3.8 2.8 3.4 3.4 0 0 0-.2 1.35v9.35h-2.8zm19.33 15.48c.06 3.8 2.5 5.38 5.3 5.38a10.2 10.2 0 0 0 4.3-.8l.48 2a12.53 12.53 0 0 1-5.15 1c-4.7 0-7.6-3.14-7.6-7.8s2.8-8.36 7.3-8.36c5.1 0 6.4 4.45 6.4 7.3a10.78 10.78 0 0 1-.1 1.3zm8.26-2c0-1.8-.74-4.58-3.9-4.58-2.85 0-4.1 2.62-4.32 4.58zm-494 44.76a7.38 7.38 0 0 0 3.7 1.12c2 0 3-1 3-2.3s-.8-2.08-2.88-2.85c-2.78-1-4.1-2.6-4.1-4.4 0-2.5 2-4.6 5.34-4.6a7.73 7.73 0 0 1 3.8 1l-.7 2a6 6 0 0 0-3.16-.9c-1.66 0-2.6 1-2.6 2.1s.94 1.8 2.95 2.6c2.6 1 4 2.3 4 4.6 0 2.7-2.1 4.6-5.8 4.6a8.83 8.83 0 0 1-4.4-1.1zm14.6-4.36c.07 3.8 2.5 5.38 5.3 5.38a10.2 10.2 0 0 0 4.3-.8l.5 2a12.54 12.54 0 0 1-5.16 1c-4.77 0-7.62-3.14-7.62-7.8s2.75-8.36 7.26-8.36c5.06 0 6.4 4.45 6.4 7.3a10.57 10.57 0 0 1-.1 1.3zm8.27-2c0-1.8-.7-4.58-3.9-4.58-2.8 0-4.1 2.62-4.3 4.58zm16.8 6.84a5.5 5.5 0 0 1-5 2.75c-3.6 0-6.5-3.14-6.5-7.84 0-5.7 3.8-8.3 7-8.3a5.1 5.1 0 0 1 4.8 2.7h.1l.1-2.3h2.7c-.1 1.3-.1 2.7-.1 4.3v17.6h-2.8zm0-6.82a4.77 4.77 0 0 0-.1-1.18 4.12 4.12 0 0 0-4-3.2c-2.9 0-4.6 2.46-4.6 6 0 3.07 1.5 5.76 4.6 5.76a4.2 4.2 0 0 0 4-3.07 4.7 4.7 0 0 0 .3-1.4zm20.4 5c0 1.6 0 3 .2 4.2h-2.5l-.1-2.53a5.83 5.83 0 0 1-5.1 2.88c-2.4 0-5.3-1.34-5.3-6.78v-9.06h2.8v8.5c0 2.9.9 4.9 3.5 4.9a4.07 4.07 0 0 0 3.7-2.6 4.12 4.12 0 0 0 .3-1.5v-9.5h2.8zm6.3-3.02c.1 3.8 2.5 5.38 5.3 5.38a10.2 10.2 0 0 0 4.3-.8l.5 2a12.53 12.53 0 0 1-5.1 1c-4.7 0-7.6-3.14-7.6-7.8s2.8-8.36 7.3-8.36c5.1 0 6.4 4.45 6.4 7.3a10.78 10.78 0 0 1-.1 1.3zm8.3-2c0-1.8-.7-4.58-3.9-4.58-2.8 0-4.1 2.62-4.3 4.58zm6.2-2.06c0-1.6 0-2.9-.1-4.2h2.5l.2 2.57h.1a5.7 5.7 0 0 1 5.1-2.9c2.2 0 5.5 1.27 5.5 6.58V121h-2.8v-8.93c0-2.5-.9-4.58-3.6-4.58a4 4 0 0 0-3.7 2.8 4.07 4.07 0 0 0-.2 1.3v9.4H847zm28.8 10.72a10.36 10.36 0 0 1-4.4.9c-4.6 0-7.7-3.17-7.7-7.9s3.3-8.22 8.3-8.22a9.4 9.4 0 0 1 3.9.8l-.6 2.18a6.53 6.53 0 0 0-3.2-.74c-3.5 0-5.4 2.62-5.4 5.86 0 3.58 2.3 5.8 5.4 5.8a8 8 0 0 0 3.5-.78zm4.7-6.66c.1 3.8 2.5 5.38 5.3 5.38a10.2 10.2 0 0 0 4.3-.8l.5 2a12.53 12.53 0 0 1-5.1 1c-4.7 0-7.6-3.14-7.6-7.8s2.8-8.36 7.3-8.36c5.1 0 6.4 4.45 6.4 7.3a10.78 10.78 0 0 1-.1 1.3zm8.3-2c0-1.8-.7-4.58-3.9-4.58-2.8 0-4.1 2.62-4.3 4.58zm6.2-1.42c0-1.82 0-3.4-.1-4.83h2.5l.1 3h.2a4.65 4.65 0 0 1 4.3-3.3 3.05 3.05 0 0 1 .8.1v2.7a4.24 4.24 0 0 0-1-.1c-2 0-3.4 1.5-3.8 3.6a7.88 7.88 0 0 0-.1 1.3v8.3H895zm17 10.66c.1-1.06.2-2.62.2-4V98.28h2.8V108h.1a5.77 5.77 0 0 1 5.3-2.85c3.9 0 6.6 3.2 6.6 7.9 0 5.54-3.5 8.3-6.9 8.3a5.52 5.52 0 0 1-5.2-2.92h-.1l-.1 2.56zm2.9-6.2a5.23 5.23 0 0 0 .2 1 4.34 4.34 0 0 0 4.2 3.3c3 0 4.7-2.4 4.7-6 0-3.1-1.6-5.77-4.6-5.77a4.5 4.5 0 0 0-4.3 3.46 5.58 5.58 0 0 0-.1 1.1zm24 6.2l-.2-2h-.1a5.77 5.77 0 0 1-4.7 2.3 4.4 4.4 0 0 1-4.7-4.45c0-3.74 3.4-5.8 9.3-5.76v-.4c0-1.3-.3-3.6-3.5-3.6a7.7 7.7 0 0 0-4 1.1l-.6-1.9a9.6 9.6 0 0 1 5.1-1.4c4.8 0 5.9 3.2 5.9 6.3v5.8a21.76 21.76 0 0 0 .3 3.7zm-.4-7.9c-3.1-.06-6.5.48-6.5 3.5a2.5 2.5 0 0 0 2.7 2.68 3.85 3.85 0 0 0 3.8-2.6 3 3 0 0 0 .1-.9zm6.9 5.02a7.38 7.38 0 0 0 3.7 1.12c2 0 3-1 3-2.3s-.8-2.08-2.8-2.85c-2.8-1-4.1-2.6-4.1-4.4 0-2.5 2-4.6 5.4-4.6a7.73 7.73 0 0 1 3.8 1l-.7 2a6 6 0 0 0-3.1-.9c-1.6 0-2.6 1-2.6 2.1s1 1.8 3 2.6c2.7 1 4.1 2.3 4.1 4.6 0 2.7-2.1 4.6-5.8 4.6a8.84 8.84 0 0 1-4.3-1.1zm14.6-4.36c0 3.8 2.5 5.38 5.3 5.38a10.2 10.2 0 0 0 4.3-.8l.4 2a12.53 12.53 0 0 1-5.1 1c-4.8 0-7.6-3.14-7.6-7.8s2.8-8.36 7.3-8.36c5.1 0 6.4 4.45 6.4 7.3a10.6 10.6 0 0 1-.1 1.3zm8.2-2c0-1.8-.7-4.58-3.9-4.58-2.8 0-4.1 2.62-4.3 4.58zm19.6-13.48V117c0 1.38 0 2.94.1 4h-2.5l-.1-2.7h-.1a5.73 5.73 0 0 1-5.3 3c-3.7 0-6.6-3.16-6.6-7.86 0-5.15 3.2-8.32 7-8.32a5.18 5.18 0 0 1 4.7 2.37h.1v-9.3zm-2.8 13.54a4.94 4.94 0 0 0-.1-1.18 4.14 4.14 0 0 0-4-3.26c-2.9 0-4.6 2.56-4.6 6 0 3.14 1.6 5.73 4.6 5.73a4.23 4.23 0 0 0 4.2-3.3 4.85 4.85 0 0 0 .2-1.2zm28.3 1.3c0 5.73-4 8.22-7.7 8.22-4.2 0-7.4-3.07-7.4-8 0-5.18 3.4-8.22 7.7-8.22 4.5.04 7.5 3.27 7.5 8zm-12.3.16c0 3.4 2 6 4.7 6s4.7-2.53 4.7-6c0-2.62-1.3-6-4.6-6s-4.7 3.06-4.7 6zm15.8-3.58c0-1.6 0-2.9-.1-4.2h2.5l.2 2.57h.1a5.7 5.7 0 0 1 5.1-2.9c2.2 0 5.5 1.27 5.5 6.58V121h-2.8v-8.93c0-2.5-.9-4.58-3.6-4.58a4 4 0 0 0-3.7 2.8 4 4 0 0 0-.2 1.3v9.4h-2.8zm28-8.64v4.45h4v2.2h-4v8.3c0 2 .6 3 2.1 3a6.28 6.28 0 0 0 1.7-.2l.1 2.2a6.9 6.9 0 0 1-2.5.4 3.9 3.9 0 0 1-3-1.1c-.8-.8-1.1-2.2-1.1-4v-8.4h-2.4v-2.1h2.4V102zm7.2-2.78h2.8v9.66h.1a5.22 5.22 0 0 1 2-2 5.8 5.8 0 0 1 2.9-.8c2.1 0 5.5 1.28 5.5 6.62V121h-2.8v-8.9c0-2.5-.9-4.6-3.5-4.6a4 4 0 0 0-3.7 2.8 3.4 3.4 0 0 0-.2 1.35V121h-2.8zm19.4 15.48c.1 3.8 2.5 5.38 5.3 5.38a10.2 10.2 0 0 0 4.3-.8l.5 2a12.53 12.53 0 0 1-5.2 1c-4.7 0-7.6-3.14-7.6-7.8s2.8-8.36 7.3-8.36c5.1 0 6.4 4.45 6.4 7.3a10.6 10.6 0 0 1-.1 1.3zm8.3-2c0-1.8-.7-4.58-3.9-4.58-2.8 0-4.1 2.62-4.3 4.58zm9.4-10.6a1.74 1.74 0 0 1-3.5 0 1.72 1.72 0 0 1 1.8-1.76 1.67 1.67 0 0 1 1.7 1.76zm-3.2 19.84v-15.5h2.9V121zm7.5-10.66c0-1.82 0-3.4-.1-4.83h2.4l.1 3h.2a4.65 4.65 0 0 1 4.3-3.3 3.05 3.05 0 0 1 .8.1v2.7a4.24 4.24 0 0 0-1-.1c-2 0-3.4 1.5-3.8 3.6a7.88 7.88 0 0 0-.1 1.3v8.3h-2.7zm20.7-9.28v4.45h4v2.2h-4v8.3c0 2 .5 3 2.1 3a6.27 6.27 0 0 0 1.6-.2l.2 2.2a6.9 6.9 0 0 1-2.5.4 3.9 3.9 0 0 1-3-1.1c-.8-.8-1.1-2.2-1.1-4v-8.4h-2.4v-2.1h2.4V102zm10.3.1a1.74 1.74 0 0 1-3.5 0 1.72 1.72 0 0 1 1.8-1.76 1.67 1.67 0 0 1 1.7 1.76zM1121 121v-15.5h2.8V121zm7.5-11.3c0-1.6 0-2.9-.18-4.2h2.45l.1 2.5h.1a5.34 5.34 0 0 1 4.9-2.84 4.58 4.58 0 0 1 4.35 3.1h.1a6.37 6.37 0 0 1 1.7-2 5.28 5.28 0 0 1 3.44-1.1c2 0 5.1 1.35 5.1 6.73v9.1h-2.8v-8.8c0-3-1.1-4.8-3.36-4.8a3.65 3.65 0 0 0-3.4 2.6 4.67 4.67 0 0 0-.23 1.4v9.6h-2.7v-9.3c0-2.5-1.1-4.3-3.25-4.3a3.85 3.85 0 0 0-3.5 2.8 3.9 3.9 0 0 0-.2 1.4v9.4h-2.77zm28.2 4.06c.02 3.8 2.5 5.38 5.3 5.38a10.2 10.2 0 0 0 4.3-.8l.44 2a12.53 12.53 0 0 1-5.18 1c-4.8 0-7.6-3.14-7.6-7.8s2.7-8.36 7.23-8.36c5 0 6.4 4.45 6.4 7.3a10.78 10.78 0 0 1-.1 1.3zm8.2-2c0-1.8-.72-4.58-3.9-4.58-2.83 0-4.1 2.62-4.3 4.58zm5.86 6.36a7.38 7.38 0 0 0 3.7 1.12c2 0 3-1 3-2.3s-.8-2.08-2.9-2.85c-2.8-1-4.1-2.6-4.1-4.4 0-2.5 2-4.6 5.34-4.6a7.73 7.73 0 0 1 3.8 1l-.7 2a6 6 0 0 0-3.14-.9c-1.64 0-2.6 1-2.6 2.1s.96 1.8 2.97 2.6c2.7 1 4.1 2.3 4.1 4.6 0 2.7-2.1 4.6-5.76 4.6a8.84 8.84 0 0 1-4.36-1.1zm16.4-17.06v4.45h4v2.2h-4v8.3c0 2 .55 3 2.1 3a6.28 6.28 0 0 0 1.65-.2l.2 2.2a6.9 6.9 0 0 1-2.5.4 3.9 3.9 0 0 1-3-1.1c-.8-.8-1-2.2-1-4v-8.4h-2.4v-2.1h2.4V102zm15.8 19.94l-.2-2h-.1a5.77 5.77 0 0 1-4.75 2.3 4.4 4.4 0 0 1-4.7-4.45c0-3.74 3.4-5.8 9.3-5.76v-.4c0-1.3-.3-3.6-3.5-3.6a7.7 7.7 0 0 0-4 1.1l-.6-1.9a9.6 9.6 0 0 1 5.1-1.4c4.8 0 5.9 3.2 5.9 6.3v5.8a21.76 21.76 0 0 0 .3 3.7zm-.4-7.9c-3.1-.06-6.6.48-6.6 3.5a2.5 2.5 0 0 0 2.7 2.68 3.85 3.85 0 0 0 3.7-2.6 3 3 0 0 0 .1-.9zm7.26-3.4c0-1.6 0-2.9-.1-4.2h2.5l.1 2.5h.1a5.34 5.34 0 0 1 4.8-2.84 4.58 4.58 0 0 1 4.4 3.1 6.38 6.38 0 0 1 1.7-2 5.28 5.28 0 0 1 3.4-1.1c2 0 5.1 1.35 5.1 6.73v9.1h-2.8v-8.8c0-3-1.1-4.8-3.32-4.8a3.64 3.64 0 0 0-3.3 2.5 4.6 4.6 0 0 0-.2 1.4v9.6h-2.74v-9.3c0-2.5-1.1-4.3-3.2-4.3a4.2 4.2 0 0 0-3.7 4.2v9.4h-2.7zm26.7.86c0-2-.04-3.58-.1-5.06h2.56l.15 2.66h.04a6.1 6.1 0 0 1 5.5-3c3.72 0 6.54 3.17 6.54 7.87 0 5.57-3.4 8.32-7 8.32a5.43 5.43 0 0 1-4.7-2.43v8.42h-2.8zm2.8 4.13a6.4 6.4 0 0 0 .16 1.1 4.35 4.35 0 0 0 4.23 3.3c3 0 4.7-2.5 4.7-6 0-3.1-1.6-5.8-4.6-5.8a4.5 4.5 0 0 0-4.3 3.5 4.58 4.58 0 0 0-.1 1.1zm-796 167.7h-8.35v7.7h9.3v2.3H432V271h11.64v2.34h-8.9v6.82h8.4zm4.5-.6c0-1.8 0-3.4-.12-4.9h2.4l.1 3h.15a4.65 4.65 0 0 1 4.3-3.4 3.07 3.07 0 0 1 .8.1v2.6a4.2 4.2 0 0 0-1-.1c-2 0-3.4 1.5-3.8 3.6a7.93 7.93 0 0 0-.1 1.3v8.3h-2.8zm10.6 0c0-1.8 0-3.4-.13-4.9h2.4l.1 3h.2a4.65 4.65 0 0 1 4.3-3.4 3.07 3.07 0 0 1 .8.1v2.6a4.2 4.2 0 0 0-1-.1c-2 0-3.4 1.5-3.8 3.6a7.93 7.93 0 0 0-.1 1.3v8.3h-2.8zm24.16 2.7c0 5.7-4 8.2-7.7 8.2-4.2 0-7.43-3.1-7.43-8 0-5.2 3.4-8.3 7.7-8.3 4.5.1 7.5 3.3 7.5 8zm-12.3.1c0 3.4 2 6 4.7 6s4.7-2.5 4.7-6c0-2.6-1.3-6-4.63-6s-4.7 3-4.7 6zm15.86-3c0-1.9 0-3.4-.1-4.9h2.43l.1 3h.1a4.65 4.65 0 0 1 4.3-3.4 3.07 3.07 0 0 1 .8.1v2.7a4.2 4.2 0 0 0-1-.1c-2 0-3.4 1.5-3.8 3.6a7.93 7.93 0 0 0-.1 1.3v8.2H486zm10.1 7.7a7.38 7.38 0 0 0 3.7 1.2c2 0 3-1 3-2.3s-.8-2.1-2.86-2.9c-2.77-1-4.1-2.5-4.1-4.4 0-2.5 2-4.5 5.35-4.5a7.72 7.72 0 0 1 3.8 1l-.7 2a6 6 0 0 0-3.2-.9c-1.6 0-2.5 1-2.5 2.1s1 1.9 3 2.6c2.7 1 4.1 2.3 4.1 4.6 0 2.7-2.1 4.6-5.8 4.6a8.83 8.83 0 0 1-4.35-1.1zm33.17-12.6c0 1.1-.1 2.4-.1 4.3v9c0 3.5-.7 5.7-2.2 7.1a8.2 8.2 0 0 1-5.6 1.8 10 10 0 0 1-5.2-1.3l.7-2.2a8.74 8.74 0 0 0 4.5 1.2c2.9 0 5-1.5 5-5.4v-1.8h-.1a5.53 5.53 0 0 1-5 2.6c-3.8 0-6.6-3.2-6.6-7.5 0-5.3 3.5-8.2 7-8.2a5.15 5.15 0 0 1 4.9 2.7h.1l.2-2.4zm-2.9 6.1a4 4 0 0 0-.1-1.2 4.06 4.06 0 0 0-4-3c-2.7 0-4.6 2.2-4.6 5.8 0 3 1.5 5.5 4.5 5.5a4.12 4.12 0 0 0 3.9-2.9 4.9 4.9 0 0 0 .2-1.5zm7.3-1.2c0-1.9 0-3.4-.1-4.9h2.4l.1 3h.2a4.65 4.65 0 0 1 4.3-3.4 3.07 3.07 0 0 1 .8.1v2.6a4.2 4.2 0 0 0-1-.1c-2 0-3.4 1.5-3.8 3.6a7.93 7.93 0 0 0-.1 1.3v8.2h-2.8zm24.2 2.7c0 5.7-4 8.2-7.7 8.2-4.2 0-7.4-3.1-7.4-8 0-5.2 3.4-8.2 7.7-8.2 4.5 0 7.5 3.3 7.5 8zm-12.3.1c0 3.4 2 6 4.7 6s4.7-2.6 4.7-6c0-2.6-1.3-6-4.6-6s-4.8 3-4.8 6zm28.8 3.5c0 1.6 0 3 .1 4.2H572l-.1-2.5a5.83 5.83 0 0 1-5.1 2.8c-2.4 0-5.3-1.4-5.3-6.8v-9h2.8v8.5c0 2.9.9 4.9 3.47 4.9a4.07 4.07 0 0 0 3.7-2.6 4.1 4.1 0 0 0 .25-1.4v-9h2.8zm4.7-6.2c0-2-.1-3.6-.1-5.1h2.6l.2 2.6a6.1 6.1 0 0 1 5.5-3c3.7 0 6.5 3.1 6.5 7.8 0 5.5-3.4 8.3-7 8.3a5.43 5.43 0 0 1-4.8-2.4h-.1v8.5h-3zm2.8 4.1a6.33 6.33 0 0 0 .1 1.1 4.34 4.34 0 0 0 4.2 3.3c3 0 4.7-2.4 4.7-6 0-3.1-1.7-5.8-4.7-5.8a4.5 4.5 0 0 0-4.3 3.5 4.57 4.57 0 0 0-.2 1.2zm17-1c.1 3.8 2.5 5.4 5.3 5.4a10.18 10.18 0 0 0 4.3-.8l.5 2a12.54 12.54 0 0 1-5.1 1c-4.7 0-7.6-3.2-7.6-7.8s2.8-8.4 7.3-8.4c5.1 0 6.4 4.4 6.4 7.3a10.58 10.58 0 0 1-.1 1.3zm8.3-2c0-1.8-.8-4.6-3.9-4.6-2.9 0-4.1 2.6-4.4 4.6zm19.5-13.5V288c0 1.34 0 2.9.1 4H624l-.12-2.7h-.06a5.73 5.73 0 0 1-5.28 3c-3.75 0-6.63-3.2-6.63-7.9 0-5.16 3.2-8.33 7-8.33a5.18 5.18 0 0 1 4.7 2.4h.1v-9.3zm-2.8 13.6a5 5 0 0 0-.2-1.1 4.14 4.14 0 0 0-4-3.3c-2.9 0-4.6 2.5-4.6 6 0 3.1 1.6 5.7 4.6 5.7a4.23 4.23 0 0 0 4.1-3.4 4.9 4.9 0 0 0 .2-1.3zm17.4-10.7a1.74 1.74 0 0 1-3.5 0 1.72 1.72 0 0 1 1.8-1.7 1.67 1.67 0 0 1 1.7 1.7zm-3.2 19.9V277h2.8v15.5zm7.5-11.3c0-1.6 0-2.9-.1-4.2h2.5l.2 2.5h.1a5.7 5.7 0 0 1 5.1-2.9c2.2 0 5.5 1.2 5.5 6.6v9.2h-3v-9c0-2.5-.9-4.6-3.6-4.6a4 4 0 0 0-3.8 2.8 4 4 0 0 0-.1 1.3v9.3h-2.8zm21-8.7v4.5h4v2.2h-4v8.4c0 1.9.6 3 2.1 3a6.3 6.3 0 0 0 1.7-.2l.2 2.1a6.88 6.88 0 0 1-2.5.4 3.9 3.9 0 0 1-3-1.2c-.8-.9-1.1-2.2-1.1-4V279h-2.4v-2h2.4v-3.7zm21 12.1c0 5.7-4 8.2-7.7 8.2-4.2 0-7.4-3.1-7.4-8 0-5.2 3.4-8.2 7.7-8.2 4.5 0 7.5 3.3 7.5 8zm-12.3.2c0 3.4 2 6 4.7 6s4.7-2.5 4.7-6c0-2.6-1.3-6-4.6-6s-4.7 3.1-4.7 6zm36.7-.1c0 5.7-4 8.2-7.7 8.2-4.2 0-7.4-3.1-7.4-8 0-5.2 3.4-8.2 7.7-8.2 4.4 0 7.4 3.3 7.4 8zm-12.3.2c0 3.4 2 6 4.7 6s4.7-2.6 4.7-6c0-2.7-1.3-6-4.6-6s-4.8 3-4.8 6zm15.9-3.6c0-1.6 0-2.9-.1-4.2h2.5l.2 2.6h.1a5.7 5.7 0 0 1 5.1-2.9c2.2 0 5.5 1.2 5.5 6.5v9.3h-3v-9c0-2.5-.9-4.6-3.6-4.6a4 4 0 0 0-3.8 2.8 4 4 0 0 0-.2 1.3v9.3h-2.8zm19.4 4.1c.1 3.8 2.5 5.3 5.3 5.3a10.18 10.18 0 0 0 4.3-.8l.5 2a12.54 12.54 0 0 1-5.2 1c-4.8 0-7.6-3.1-7.6-7.8s2.7-8.3 7.2-8.3c5.1 0 6.4 4.4 6.4 7.3a10.8 10.8 0 0 1-.1 1.3zm8.3-2c0-1.8-.8-4.6-3.9-4.6-2.9 0-4.1 2.6-4.3 4.6zm23.5 6.8h-.1a5.5 5.5 0 0 1-5 2.7c-3.6 0-6.5-3.1-6.5-7.8 0-5.8 3.7-8.4 7-8.4a5.1 5.1 0 0 1 4.8 2.7l.1-2.4h2.7c-.1 1.3-.1 2.7-.1 4.3v17.5H767zm0-6.8a4.76 4.76 0 0 0-.1-1.2 4.1 4.1 0 0 0-4-3.2c-2.9 0-4.7 2.4-4.7 6 0 3 1.5 5.7 4.6 5.7a4.2 4.2 0 0 0 4-3.1 4.73 4.73 0 0 0 .2-1.3zm20.4 5c0 1.6 0 3 .1 4.2h-2.5l-.1-2.5a5.83 5.83 0 0 1-5.1 2.9c-2.5 0-5.4-1.3-5.4-6.8v-9h2.8v8.6c0 2.9.9 4.9 3.4 4.9a4.07 4.07 0 0 0 3.7-2.5 4.1 4.1 0 0 0 .3-1.4V277h2.8zm13.3 4.2l-.2-2h-.1a5.77 5.77 0 0 1-4.7 2.3 4.4 4.4 0 0 1-4.7-4.5c0-3.7 3.3-5.8 9.3-5.7v-.3c0-1.3-.3-3.6-3.5-3.6a7.72 7.72 0 0 0-4 1.1l-.6-1.9a9.6 9.6 0 0 1 5.1-1.4c4.7 0 5.9 3.2 5.9 6.3v5.8a21.87 21.87 0 0 0 .2 3.7zm-.4-7.9c-3-.1-6.5.4-6.5 3.4a2.5 2.5 0 0 0 2.7 2.7 3.85 3.85 0 0 0 3.8-2.6 2.9 2.9 0 0 0 .2-.9zm7.3-3.4c0-1.6 0-3-.1-4.2h2.5l.2 2.5h.1a5.7 5.7 0 0 1 5.1-2.9c2.2 0 5.5 1.2 5.5 6.6v9.2H818v-9c0-2.5-.9-4.6-3.6-4.6a4 4 0 0 0-3.7 3 4 4 0 0 0-.2 1.3v9.3h-3zm21-8.7v4.5h4v2.2h-4v8.3c0 1.9.6 3 2.1 3a6.3 6.3 0 0 0 1.7-.2l.1 2.1a6.88 6.88 0 0 1-2.5.4 3.9 3.9 0 0 1-3-1.2c-.8-.9-1.1-2.2-1.1-4V279H823v-2h2.4v-3.7zm10.4.1a1.74 1.74 0 0 1-3.5 0 1.72 1.72 0 0 1 1.8-1.8 1.67 1.67 0 0 1 1.8 1.7zm-3.1 19.8V277h2.9v15.5zm5.9-1.5l7-9.1 2-2.4v-.1H842v-2h11.8v1.7l-6.9 9c-.6.8-1.2 1.6-2 2.4h9.1v2.2h-13zm24 1.6l-.2-2h-.1a5.77 5.77 0 0 1-4.7 2.3 4.4 4.4 0 0 1-4.7-4.5c0-3.8 3.3-5.8 9.3-5.8v-.3c0-1.3-.3-3.6-3.5-3.6a7.7 7.7 0 0 0-4 1.2l-.6-1.9a9.6 9.6 0 0 1 5.1-1.4c4.8 0 5.9 3.2 5.9 6.3v5.8a21.87 21.87 0 0 0 .3 3.7zm-.4-7.9c-3-.1-6.5.4-6.5 3.5a2.5 2.5 0 0 0 2.7 2.7 3.85 3.85 0 0 0 3.8-2.6 2.9 2.9 0 0 0 .2-.9zm10.6-12.1v4.5h4v2.1h-4v8.3c0 1.9.6 3 2.1 3a6.3 6.3 0 0 0 1.6-.2l.2 2.1a6.88 6.88 0 0 1-2.5.4 3.9 3.9 0 0 1-3-1.2c-.8-.9-1.1-2.2-1.1-4V279h-3v-2h2.4v-3.7zm10.4.1a1.74 1.74 0 0 1-3.5 0 1.72 1.72 0 0 1 1.8-1.8 1.67 1.67 0 0 1 1.8 1.7zm-3.1 19.8V277h2.8v15.5zm21.5-7.9c0 5.7-4 8.2-7.7 8.2-4.2 0-7.4-3.1-7.4-8 0-5.2 3.4-8.2 7.7-8.2 4.5 0 7.5 3.3 7.5 8zm-12.2.1c0 3.4 2 6 4.7 6s4.7-2.6 4.7-6c0-2.6-1.3-6-4.6-6s-4.8 3-4.8 6zm15.8-3.6c0-1.6 0-3-.1-4.2h2.5l.2 2.5h.1a5.7 5.7 0 0 1 5.1-2.9c2.1 0 5.4 1.3 5.4 6.6v9.2h-3V283c0-2.5-1-4.53-3.6-4.53a4 4 0 0 0-3.8 2.9 4 4 0 0 0-.2 1.3v9.3H908zm-434.6 27v19c0 1.3 0 2.9.1 4H471l-.2-2.7h-.1a5.73 5.73 0 0 1-5.25 3c-3.8 0-6.66-3.2-6.66-7.9 0-5.2 3.2-8.3 7-8.3a5.18 5.18 0 0 1 4.6 2.3V308zm-2.9 13.7a5 5 0 0 0-.1-1.2 4.14 4.14 0 0 0-4.1-3.3c-2.9 0-4.6 2.6-4.6 6 0 3.1 1.6 5.7 4.6 5.7a4.23 4.23 0 0 0 4.2-3.4 4.88 4.88 0 0 0 .2-1.2zm9.1 1.9c.1 3.8 2.5 5.4 5.3 5.4a10.2 10.2 0 0 0 4.3-.8l.5 2a12.54 12.54 0 0 1-5.1 1c-4.8 0-7.6-3.1-7.6-7.8s2.8-8.3 7.3-8.3c5.1 0 6.4 4.4 6.4 7.3a10.56 10.56 0 0 1-.1 1.3zm8.3-2c0-1.8-.7-4.6-3.9-4.6-2.8 0-4.1 2.6-4.3 4.6zm9.7-10.7v4.4h4v2.1h-4v8.4c0 2 .6 3 2.1 3a6.27 6.27 0 0 0 1.7-.2l.1 2.2a6.9 6.9 0 0 1-2.5.4 3.9 3.9 0 0 1-3-1.2c-.8-.9-1.1-2.2-1.1-4v-8.5h-3V315h2.4v-3.7zm8.6 12.7c.1 3.8 2.5 5.4 5.3 5.4a10.2 10.2 0 0 0 4.3-.8l.5 2a12.54 12.54 0 0 1-5.1 1c-4.7 0-7.6-3.1-7.6-7.8s2.8-8.3 7.3-8.3c5.1 0 6.4 4.4 6.4 7.3a10.56 10.56 0 0 1-.1 1.3zm8.3-2c0-1.8-.8-4.6-3.9-4.6-2.9 0-4.1 2.6-4.4 4.6zm6.2-1.4c0-1.8 0-3.4-.2-4.8h2.4l.1 3h.1a4.65 4.65 0 0 1 4.3-3.4 3 3 0 0 1 .8.1v2.7a4.26 4.26 0 0 0-1-.1c-2 0-3.4 1.5-3.8 3.6a7.94 7.94 0 0 0-.1 1.3v8.3h-3zm10.5-.6c0-1.6 0-2.9-.2-4.2h2.4l.1 2.5h.1a5.34 5.34 0 0 1 4.7-2.8 4.58 4.58 0 0 1 4.36 3.1h.1a6.38 6.38 0 0 1 1.7-2 5.28 5.28 0 0 1 3.47-1.1c2 0 5.1 1.3 5.1 6.7v9.2h-3V322c0-3-1.1-4.75-3.4-4.75a3.65 3.65 0 0 0-3.33 2.6 4.63 4.63 0 0 0-.2 1.4v9.6h-2.7v-9.27c0-2.4-1.1-4.2-3.3-4.2a3.85 3.85 0 0 0-3.5 2.8 3.9 3.9 0 0 0-.2 1.4v9.3H531zm29.8-8.6a1.74 1.74 0 0 1-3.5 0 1.72 1.72 0 0 1 1.7-1.8 1.67 1.67 0 0 1 1.7 1.7zm-3.2 19.9v-15.5h2.8V331zm7.5-11.3c0-1.6 0-2.9-.1-4.2h2.5l.2 2.5h.1a5.7 5.7 0 0 1 5.1-2.9c2.1 0 5.5 1.2 5.5 6.6v9.3h-3V322c0-2.5-.9-4.57-3.55-4.57a4 4 0 0 0-3.7 2.8 4 4 0 0 0-.2 1.3v9.4h-3zm19.4 4c.1 3.8 2.5 5.3 5.3 5.3a10.2 10.2 0 0 0 4.3-.8l.5 2a12.54 12.54 0 0 1-5.1 1c-4.74 0-7.6-3.2-7.6-7.8s2.76-8.4 7.27-8.4c5.1 0 6.4 4.4 6.4 7.3a10.56 10.56 0 0 1-.1 1.3zm8.3-2c0-1.8-.8-4.6-3.9-4.6-2.9 0-4.1 2.6-4.3 4.5zm16.4-10.7v4.4h4v2.1h-4v8.4c0 1.9.5 3 2.1 3a6.28 6.28 0 0 0 1.6-.2l.1 2.1a6.9 6.9 0 0 1-2.5.4 3.9 3.9 0 0 1-3-1.2c-.8-.9-1.1-2.2-1.1-4v-8.5H604V315h2.4v-3.7zm7.2-2.8h2.8v9.6a5.23 5.23 0 0 1 2-2 5.8 5.8 0 0 1 2.9-.8c2.1 0 5.4 1.3 5.4 6.6v9.3h-3V322c0-2.5-.9-4.6-3.6-4.6a4 4 0 0 0-3.7 2.8 3.4 3.4 0 0 0-.2 1.35v9.3h-3zm19.3 15.4c0 3.8 2.5 5.4 5.3 5.4a10.2 10.2 0 0 0 4.3-.8l.5 2a12.54 12.54 0 0 1-5.2 1c-4.8 0-7.63-3.1-7.63-7.8s2.8-8.3 7.3-8.3c5.07 0 6.4 4.4 6.4 7.3a10.77 10.77 0 0 1-.1 1.3zm8.2-2c0-1.8-.7-4.5-3.9-4.5-2.8 0-4.1 2.6-4.3 4.5zm13-13.4h2.9v23h-3zm9.2 15.4c.1 3.8 2.5 5.4 5.3 5.4a10.2 10.2 0 0 0 4.3-.8l.5 2a12.54 12.54 0 0 1-5.1 1c-4.7 0-7.6-3.2-7.6-7.8s2.8-8.4 7.3-8.4c5.1 0 6.4 4.4 6.4 7.3a10.77 10.77 0 0 1-.1 1.3zm8.3-2c0-1.8-.7-4.6-3.9-4.6-2.8 0-4.1 2.6-4.3 4.5zm6.2-2.1c0-1.6 0-2.9-.1-4.2h2.5l.2 2.6h.08a5.7 5.7 0 0 1 5.1-2.9c2.16 0 5.5 1.2 5.5 6.5v9.3h-3V322c0-2.5-.96-4.6-3.6-4.6a4 4 0 0 0-3.8 2.8 4 4 0 0 0-.2 1.3v9.4h-3zm31-4.1c0 1.1-.1 2.4-.1 4.3v9c0 3.5-.7 5.7-2.2 7a8.2 8.2 0 0 1-5.6 1.8 10 10 0 0 1-5.2-1.3l.7-2.2a8.73 8.73 0 0 0 4.3 1.4c2.9 0 5-1.5 5-5.4V328h-.05a5.53 5.53 0 0 1-4.9 2.6c-3.8 0-6.6-3.3-6.6-7.6 0-5.3 3.45-8.3 7-8.3a5.15 5.15 0 0 1 4.86 2.7l.16-2.4zm-2.9 6.1a4 4 0 0 0-.1-1.3 4.06 4.06 0 0 0-3.93-3c-2.7 0-4.6 2.24-4.6 5.83 0 3 1.5 5.5 4.58 5.5a4.12 4.12 0 0 0 3.9-2.9 4.9 4.9 0 0 0 .2-1.5zm10.7-10.5v4.5h4v2.1h-4v8.4c0 2 .5 3 2.1 3a6.28 6.28 0 0 0 1.6-.2l.18 2.2a6.9 6.9 0 0 1-2.5.4 3.9 3.9 0 0 1-3-1.1c-.8-.8-1.1-2.2-1.1-4v-8.4h-3v-2.2h2.4V312zm7.2-2.8h2.8v9.63h.1a5.23 5.23 0 0 1 2-2 5.8 5.8 0 0 1 2.9-.8c2.05 0 5.4 1.2 5.4 6.6v9.3h-3V322c0-2.5-.96-4.6-3.6-4.6a4 4 0 0 0-3.8 2.8 3.4 3.4 0 0 0-.2 1.3v9.4h-2.8zm38.5 14.82c0 5.72-4 8.2-7.7 8.2-4.2 0-7.4-3.1-7.4-8 0-5.2 3.4-8.23 7.7-8.23 4.4 0 7.4 3.3 7.4 8zm-12.3.2c0 3.4 2 6 4.7 6s4.7-2.5 4.7-6c0-2.6-1.3-6-4.6-6s-4.77 3.03-4.77 6zm16 7.93v-13.3H767v-2.1h2.2v-.7c0-2.2.5-4.1 1.8-5.4a5.4 5.4 0 0 1 3.8-1.4 6.53 6.53 0 0 1 2.4.5l-.4 2.2a4.2 4.2 0 0 0-1.8-.3c-2.4 0-3 2.1-3 4.5v.9h3.8v2.2H772v13zm19.3-19.9v4.5h4v2.1h-4v8.4c0 2 .57 3 2.1 3a6.28 6.28 0 0 0 1.67-.2l.13 2.2a6.9 6.9 0 0 1-2.5.4 3.9 3.9 0 0 1-3-1.15c-.8-.83-1.1-2.2-1.1-4v-8.45H783v-2.2h2.4V312zm7.2-2.8h2.9v9.7a5.23 5.23 0 0 1 2-2 5.8 5.8 0 0 1 2.9-.8c2.07 0 5.4 1.3 5.4 6.7v9.2h-3V322c0-2.5-.94-4.6-3.6-4.6a4 4 0 0 0-3.8 2.8 3.4 3.4 0 0 0-.1 1.4v9.3h-2.8zm19.33 15.5c0 3.8 2.5 5.4 5.3 5.4a10.2 10.2 0 0 0 4.3-.8l.5 2a12.54 12.54 0 0 1-5.2 1c-4.7 0-7.6-3.1-7.6-7.8s2.8-8.3 7.3-8.3c5.1 0 6.4 4.5 6.4 7.3a10.77 10.77 0 0 1-.1 1.3zm8.2-2c0-1.8-.8-4.6-3.9-4.6-2.9 0-4.1 2.6-4.3 4.6zm13-2c0-1.6 0-2.9-.2-4.2h2.5l.2 2.6a5.7 5.7 0 0 1 5.1-2.9c2.1 0 5.4 1.3 5.4 6.6v9.3h-2.8v-8.9c0-2.5-.9-4.6-3.5-4.6a4 4 0 0 0-3.8 2.8 4 4 0 0 0-.2 1.3v9.4h-3zM868 323c0 5.8-4 8.3-7.7 8.3-4.2 0-7.4-3.04-7.4-8 0-5.15 3.4-8.2 7.7-8.2 4.4.06 7.4 3.3 7.4 8zm-12.3.2c0 3.4 2 6 4.7 6s4.7-2.5 4.7-6c0-2.6-1.3-6-4.6-6s-4.8 3.1-4.8 6zm19.2-12.2v4.5h4v2.1h-4v8.4c0 1.9.53 3 2.1 3a6.28 6.28 0 0 0 1.63-.2l.1 2.1a6.9 6.9 0 0 1-2.5.4 3.9 3.9 0 0 1-3-1.2c-.8-.8-1.1-2.2-1.1-4v-8.43h-2.4v-2.2h2.4V312zm8.54 12.7c.04 3.8 2.5 5.4 5.3 5.4a10.2 10.2 0 0 0 4.3-.8l.46 2a12.54 12.54 0 0 1-5.15 1c-4.8 0-7.6-3.1-7.6-7.8s2.8-8.3 7.3-8.3c5.1 0 6.4 4.47 6.4 7.3a10.77 10.77 0 0 1-.1 1.3zm8.24-2c0-1.8-.7-4.52-3.9-4.52-2.8 0-4.1 2.6-4.3 4.56zm285.5-29.2V271h3l6.9 10.9a61.2 61.2 0 0 1 3.9 7h.1c-.2-2.87-.3-5.5-.3-8.85v-9h2.6v21.57h-2.8l-6.8-10.94a68.4 68.4 0 0 1-4-7.2h-.1c.16 2.72.2 5.3.2 8.9v9.2zm35-7.82c0 5.7-4 8.2-7.7 8.2-4.2 0-7.4-3.06-7.4-8 0-5.2 3.4-8.2 7.7-8.2 4.5 0 7.5 3.27 7.5 8zm-12.3.16c0 3.4 2 6 4.8 6s4.7-2.5 4.7-6c0-2.6-1.3-6-4.6-6s-4.73 3.1-4.73 6zm19.3-12.2v4.5h4v2.2h-4v8.4c0 1.9.6 3 2.1 3a6.28 6.28 0 0 0 1.7-.2l.2 2.1a6.87 6.87 0 0 1-2.5.4 3.9 3.9 0 0 1-3-1.2c-.8-.9-1.1-2.2-1.1-4v-8.5h-2.4V277h2.4v-3.7zm8.6 12.7c.1 3.8 2.5 5.4 5.3 5.4a10.18 10.18 0 0 0 4.3-.8l.5 2a12.55 12.55 0 0 1-5.1 1c-4.76 0-7.6-3.1-7.6-7.8s2.75-8.3 7.26-8.3c5.1 0 6.4 4.4 6.4 7.3a10.6 10.6 0 0 1-.1 1.3zm8.3-2c0-1.8-.7-4.5-3.9-4.5-2.8 0-4.1 2.6-4.3 4.6zm5.87 6.4a7.38 7.38 0 0 0 3.7 1.2c2 0 3-1 3-2.3s-.8-2.1-2.9-2.8c-2.8-1-4.1-2.5-4.1-4.4 0-2.5 2-4.5 5.3-4.5a7.73 7.73 0 0 1 3.8 1l-.7 2a6 6 0 0 0-3.2-.9c-1.7 0-2.6 1-2.6 2.1s.9 1.9 2.9 2.7c2.7 1 4 2.3 4 4.6 0 2.7-2.1 4.6-5.8 4.6a8.82 8.82 0 0 1-4.4-1.1zm19.83-8.4c0-1.6 0-2.9-.1-4.2h2.42l.1 2.5h.1a5.34 5.34 0 0 1 4.8-2.8 4.58 4.58 0 0 1 4.4 3.1 6.4 6.4 0 0 1 1.7-2 5.28 5.28 0 0 1 3.4-1.1c2 0 5.1 1.4 5.1 6.8v9.1h-2.8V284c0-3-1.1-4.78-3.4-4.78a3.65 3.65 0 0 0-3.3 2.58 4.68 4.68 0 0 0-.2 1.4v9.58h-2.7v-9.26c0-2.46-1.1-4.26-3.3-4.26a3.85 3.85 0 0 0-3.5 2.8 3.9 3.9 0 0 0-.2 1.4v9.34h-2.8zm40.7 3.5c0 5.8-4 8.3-7.7 8.3-4.2 0-7.4-3.1-7.4-8 0-5.2 3.4-8.22 7.7-8.22 4.5 0 7.5 3.3 7.5 8zm-12.3.2c0 3.4 2 6 4.7 6s4.7-2.5 4.7-6c0-2.6-1.3-6-4.6-6s-4.8 3.1-4.8 6zm16.7-7.8l3 8.7a39.4 39.4 0 0 1 1.25 4h.1c.3-1.2.8-2.5 1.3-4l3-8.7h2.9l-6.1 15.5h-2.7l-5.85-15.5zm15.55 8.3c0 3.8 2.5 5.4 5.3 5.4a10.18 10.18 0 0 0 4.3-.8l.45 2a12.55 12.55 0 0 1-5.1 1c-4.7 0-7.6-3.1-7.6-7.8s2.8-8.3 7.3-8.3c5.1 0 6.4 4.4 6.4 7.3a10.8 10.8 0 0 1-.1 1.3zm8.2-2c0-1.8-.73-4.5-3.9-4.5-2.84 0-4.1 2.6-4.3 4.54zm25.97 5c0 1.6 0 3 .1 4.3h-2.5l-.16-2.57h-.06a5.83 5.83 0 0 1-5.1 2.8c-2.47 0-5.38-1.3-5.38-6.8v-9h2.8v8.6c0 2.9.9 4.9 3.5 4.9a4 4 0 0 0 4-4v-9.5h2.87zm4.63-6.2c0-2-.1-3.5-.1-5h2.5l.1 2.7h.1a6.1 6.1 0 0 1 5.5-3c3.7 0 6.5 3.18 6.5 7.88 0 5.6-3.4 8.3-7 8.3a5.43 5.43 0 0 1-4.8-2.4h-.1v8.4h-2.8zm2.8 4.2a6.3 6.3 0 0 0 .1 1.1 4.34 4.34 0 0 0 4.3 3.3c3 0 4.7-2.5 4.7-6 0-3.1-1.6-5.8-4.6-5.8a4.5 4.5 0 0 0-4.2 3.5 4.57 4.57 0 0 0-.2 1.1zm30.8 6.3l-.2-2h-.1a5.77 5.77 0 0 1-4.8 2.3 4.4 4.4 0 0 1-4.8-4.5c0-3.8 3.35-5.8 9.3-5.8v-.3c0-1.3-.32-3.6-3.5-3.6a7.72 7.72 0 0 0-4 1.1l-.63-1.9a9.6 9.6 0 0 1 5.1-1.4c4.77 0 5.9 3.2 5.9 6.3v5.8a21.66 21.66 0 0 0 .3 3.7zm-.4-7.9c-3.1-.1-6.6.4-6.6 3.4a2.5 2.5 0 0 0 2.6 2.7 3.85 3.85 0 0 0 3.7-2.6 3 3 0 0 0 .12-.9zm7.2-3.4c0-1.6 0-3-.1-4.2h2.5l.2 2.5h.1a5.7 5.7 0 0 1 5.12-2.9c2.1 0 5.42 1.2 5.42 6.6v9.2h-2.8v-9c0-2.5-.9-4.6-3.6-4.6a4 4 0 0 0-3.7 2.9 4 4 0 0 0-.2 1.3v9.3h-2.8zm31.2-11.5v18.7c0 1.3 0 2.9.1 4h-2.6l-.2-2.7h-.1a5.73 5.73 0 0 1-5.3 3c-3.8 0-6.6-3.2-6.6-7.9 0-5.2 3.1-8.4 6.9-8.4a5.18 5.18 0 0 1 4.7 2.4v-9.3zm-2.9 13.5a4.93 4.93 0 0 0-.15-1.2 4.14 4.14 0 0 0-4-3.3c-2.9 0-4.6 2.5-4.6 6 0 3.1 1.6 5.7 4.6 5.7a4.23 4.23 0 0 0 4.1-3.4 4.86 4.86 0 0 0 .2-1.2zm27.64-13.6v18.7c0 1.3 0 2.9.1 4h-2.6l-.1-2.7h-.05a5.73 5.73 0 0 1-5.2 3c-3.7 0-6.6-3.2-6.6-7.9 0-5.2 3.2-8.3 7-8.3a5.18 5.18 0 0 1 4.7 2.3h.1v-9.3zm-2.8 13.5a5 5 0 0 0-.1-1.2 4.14 4.14 0 0 0-4.07-3.3c-2.9 0-4.6 2.5-4.6 6 0 3.1 1.6 5.7 4.6 5.7a4.23 4.23 0 0 0 4.17-3.4 4.9 4.9 0 0 0 .12-1.2zm21.5 1.3c0 5.7-4 8.2-7.7 8.2-4.2 0-7.4-3.1-7.4-8 0-5.2 3.4-8.3 7.7-8.3 4.5 0 7.5 3.3 7.5 8zm-12.3.1c0 3.4 2 6 4.75 6s4.7-2.6 4.7-6c0-2.7-1.3-6-4.6-6s-4.78 3-4.78 6zm16.8-7.8l2 7.8c.5 1.7.9 3.3 1.2 4.9h.1c.33-1.6.84-3.22 1.36-4.9l2.5-7.9h2.3l2.4 7.75c.6 1.8 1 3.5 1.4 5h.1a46.6 46.6 0 0 1 1.2-5l2.2-7.7h2.8l-5 15.5h-2.6l-2.4-7.4a51.8 51.8 0 0 1-1.4-5.1h-.1a45.56 45.56 0 0 1-1.4 5.1l-2.5 7.4h-2.6l-4.7-15.5zm22.4 4.1c0-1.6 0-2.9-.1-4.2h2.5l.2 2.6h.1a5.7 5.7 0 0 1 5.1-2.9c2.1 0 5.4 1.23 5.4 6.54v9.25h-2.8v-9c0-2.5-1-4.6-3.6-4.6a4 4 0 0 0-3.7 3 4 4 0 0 0-.2 1.3v9.4h-2.8zm-351 30v4.48h4v2.2h-4v8.4c0 2 .6 3 2.1 3a6.27 6.27 0 0 0 1.7-.2l.13 2.2a6.88 6.88 0 0 1-2.5.4 3.9 3.9 0 0 1-3-1.1c-.8-.8-1.1-2.2-1.1-4V318h-2.4v-2.1h2.4V312zm7.3-2.75h2.73v9.6h.1a5.22 5.22 0 0 1 2-2 5.8 5.8 0 0 1 2.9-.8c2.1 0 5.4 1.2 5.4 6.6v9.3h-2.8v-8.9c0-2.5-.9-4.6-3.6-4.6a4 4 0 0 0-3.8 2.8 3.4 3.4 0 0 0-.2 1.3v9.4h-2.8zm19.3 15.5c.03 3.8 2.5 5.4 5.3 5.4a10.18 10.18 0 0 0 4.3-.8l.5 2a12.55 12.55 0 0 1-5.2 1c-4.78 0-7.6-3.1-7.6-7.8s2.7-8.3 7.2-8.3c5.05 0 6.4 4.4 6.4 7.3a10.6 10.6 0 0 1-.1 1.3zm8.23-2c0-1.8-.7-4.6-3.9-4.6-2.8 0-4.1 2.7-4.3 4.6zm12.6 6.4a7.38 7.38 0 0 0 3.8 1.2c2 0 3-1 3-2.3s-.8-2.1-2.9-2.8c-2.8-1-4.1-2.6-4.1-4.4 0-2.5 2-4.6 5.4-4.6a7.73 7.73 0 0 1 3.8 1l-.7 2a6 6 0 0 0-3.1-.9c-1.6 0-2.6 1-2.6 2.1s1 1.9 3 2.62c2.7 1 4.1 2.33 4.1 4.63 0 2.7-2.1 4.6-5.8 4.6a8.82 8.82 0 0 1-4.3-1.1zm24.1 2.3a10.38 10.38 0 0 1-4.4.9c-4.6 0-7.7-3.1-7.7-7.9s3.3-8.2 8.3-8.2a9.42 9.42 0 0 1 3.9.8l-.6 2.2a6.53 6.53 0 0 0-3.2-.7c-3.5 0-5.4 2.6-5.4 5.9 0 3.6 2.3 5.8 5.4 5.8a8 8 0 0 0 3.5-.8zm11.9.6l-.2-2h-.1a5.77 5.77 0 0 1-4.7 2.3 4.4 4.4 0 0 1-4.7-4.4c0-3.7 3.4-5.8 9.3-5.7v-.4c0-1.3-.3-3.6-3.5-3.6a7.72 7.72 0 0 0-4 1.14l-.6-1.9a9.6 9.6 0 0 1 5.1-1.4c4.8 0 5.9 3.2 5.9 6.3v5.8a21.77 21.77 0 0 0 .3 3.7zm-.4-7.9c-3 0-6.5.5-6.5 3.5a2.5 2.5 0 0 0 2.7 2.7 3.85 3.85 0 0 0 3.8-2.6 3 3 0 0 0 .2-.9zm7.3-14.8h2.8V331h-2.8zm9.1 15.5c.1 3.8 2.5 5.4 5.3 5.4a10.18 10.18 0 0 0 4.3-.8l.5 2a12.55 12.55 0 0 1-5.1 1c-4.7 0-7.6-3.1-7.6-7.8s2.8-8.3 7.3-8.3c5.1 0 6.4 4.5 6.4 7.3a10.6 10.6 0 0 1-.1 1.3zm8.3-2c0-1.8-.7-4.6-3.9-4.6-2.8 0-4.1 2.6-4.3 4.6zm16.4-10.7v4.4h4v2.13h-4v8.3c0 1.9.6 3 2.1 3a6.27 6.27 0 0 0 1.7-.2l.1 2.1a6.87 6.87 0 0 1-2.5.35 3.9 3.9 0 0 1-3-1.2c-.8-.8-1.1-2.2-1.1-4v-8.4h-2.4v-2.15h2.4V312zm21 12.1c0 5.7-4 8.2-7.7 8.2-4.2 0-7.4-3.1-7.4-8 0-5.2 3.4-8.2 7.7-8.2 4.5 0 7.5 3.2 7.5 8zm-12.3.1c0 3.4 2 6 4.7 6s4.7-2.6 4.7-6c0-2.7-1.3-6-4.6-6s-4.7 3-4.7 6zm31.2 7.7l-.2-2h-.1a5.77 5.77 0 0 1-4.7 2.3 4.4 4.4 0 0 1-4.7-4.5c0-3.8 3.4-5.8 9.3-5.8v-.4c0-1.3-.3-3.6-3.5-3.6a7.72 7.72 0 0 0-4 1.1l-.6-1.9a9.6 9.6 0 0 1 5.1-1.4c4.8 0 5.9 3.2 5.9 6.3v5.8a21.66 21.66 0 0 0 .3 3.7zm-.4-7.9c-3-.1-6.5.5-6.5 3.5a2.5 2.5 0 0 0 2.7 2.7 3.85 3.85 0 0 0 3.8-2.6 3 3 0 0 0 .2-.9zm8.1-7.6l3 8.7a39.9 39.9 0 0 1 1.3 4h.1c.4-1.3.8-2.6 1.3-4l3-8.7h3l-6 15.5h-2.7l-5.9-15.5zm28 7.6c0 5.7-4 8.2-7.7 8.2-4.2 0-7.4-3.1-7.4-8 0-5.2 3.4-8.3 7.7-8.3 4.5 0 7.5 3.2 7.5 8zm-12.3.1c0 3.4 2 6 4.7 6s4.7-2.6 4.7-6c0-2.7-1.3-6-4.6-6s-4.7 3-4.7 6zm19-12.2a1.74 1.74 0 0 1-3.5 0 1.72 1.72 0 0 1 1.8-1.8 1.67 1.67 0 0 1 1.8 1.7zm-3.1 19.9v-15.5h2.9V331zm20.9-22.8v19c0 1.3 0 2.9.2 4h-2.5l-.1-2.7a5.73 5.73 0 0 1-5.3 3c-3.7 0-6.6-3.2-6.6-7.9 0-5.2 3.2-8.3 7-8.3a5.18 5.18 0 0 1 4.7 2.3h.1v-9.3zm-2.8 13.5a4.93 4.93 0 0 0-.1-1.2 4.14 4.14 0 0 0-4-3.3c-2.9 0-4.6 2.5-4.6 6 0 3.1 1.6 5.7 4.6 5.7a4.23 4.23 0 0 0 4.2-3.4 4.87 4.87 0 0 0 .1-1.3zm28.4 1.3c0 5.7-4 8.2-7.7 8.2-4.2 0-7.4-3.1-7.4-8 0-5.2 3.4-8.2 7.7-8.2 4.5 0 7.5 3.3 7.5 8zm-12.3.1c0 3.4 2 6 4.7 6s4.7-2.5 4.7-6c0-2.6-1.3-6-4.6-6s-4.7 3.1-4.7 6zm16.7-7.8l3 8.7a39.9 39.9 0 0 1 1.3 4h.1c.4-1.3.8-2.5 1.3-4l3-8.7h3l-6 15.5h-2.7l-5.9-15.5zm15.6 8.3c.1 3.8 2.5 5.4 5.3 5.4a10.17 10.17 0 0 0 4.3-.8l.5 2a12.56 12.56 0 0 1-5.1 1c-4.8 0-7.6-3.2-7.6-7.8s2.8-8.4 7.3-8.4c5 0 6.4 4.4 6.4 7.3a10.36 10.36 0 0 1-.1 1.3zm8.3-2c0-1.8-.7-4.6-3.9-4.6-2.8 0-4.1 2.6-4.3 4.6zm6.2-1.4c0-1.8 0-3.4-.1-4.9h2.5l.1 3h.1a4.65 4.65 0 0 1 4.3-3.4 3.06 3.06 0 0 1 .8.1v2.7a4.2 4.2 0 0 0-1-.1c-2 0-3.4 1.5-3.8 3.6a8 8 0 0 0-.1 1.3v8.3h-2.8zM1447 308h2.9v23h-2.8zm16.2 22.7l-.2-2h-.1a5.77 5.77 0 0 1-4.8 2.3 4.4 4.4 0 0 1-4.7-4.4c0-3.8 3.4-5.8 9.3-5.8v-.4c0-1.3-.3-3.6-3.5-3.6a7.72 7.72 0 0 0-4 1.1l-.6-1.85a9.6 9.6 0 0 1 5.1-1.4c4.7 0 5.9 3.2 5.9 6.36v5.8a21.76 21.76 0 0 0 .3 3.7zm-.4-7.9c-3.1-.07-6.6.5-6.6 3.5a2.5 2.5 0 0 0 2.7 2.7 3.85 3.85 0 0 0 3.75-2.6 3 3 0 0 0 .1-.9zm7.3-2.5c0-2-.1-3.6-.17-5.1h2.5l.1 2.7h.1a6.1 6.1 0 0 1 5.5-3c3.75 0 6.6 3.14 6.6 7.84 0 5.6-3.4 8.34-7 8.34a5.43 5.43 0 0 1-4.8-2.4h-.1v8.46h-2.8zm2.74 4.1a6.3 6.3 0 0 0 .1 1.1 4.35 4.35 0 0 0 4.2 3.3c3 0 4.7-2.4 4.7-6 0-3.1-1.62-5.7-4.6-5.7a4.5 4.5 0 0 0-4.26 3.5 4.57 4.57 0 0 0-.2 1.1zm15.4-4.14c0-2-.07-3.6-.14-5.05h2.5l.18 2.7h.1a6.1 6.1 0 0 1 5.5-3c3.7 0 6.5 3.2 6.5 7.9 0 5.6-3.4 8.3-7 8.3a5.43 5.43 0 0 1-4.8-2.4h-.1v8.4h-2.8zm2.8 4.1a6.4 6.4 0 0 0 .1 1.1 4.35 4.35 0 0 0 4.23 3.3c3 0 4.7-2.4 4.7-6 0-3.1-1.63-5.73-4.6-5.73a4.5 4.5 0 0 0-4.3 3.5 4.57 4.57 0 0 0-.2 1.15zm18.5-13.53a1.74 1.74 0 0 1-3.5 0 1.72 1.72 0 0 1 1.76-1.7 1.67 1.67 0 0 1 1.7 1.7zm-3.1 19.9v-15.5h2.8V331zm7.5-11.3c0-1.6 0-2.95-.15-4.2h2.5l.1 2.53a5.7 5.7 0 0 1 5.1-2.9c2.1 0 5.4 1.3 5.4 6.6v9.3h-2.9V322c0-2.5-1-4.57-3.6-4.57a4 4 0 0 0-3.8 2.8 4 4 0 0 0-.2 1.3v9.4h-2.8zm31.1-4.2c-.07 1.1-.14 2.34-.14 4.23v9c0 3.58-.7 5.76-2.2 7.1a8.2 8.2 0 0 1-5.62 1.85 10 10 0 0 1-5.12-1.3l.7-2.1a8.74 8.74 0 0 0 4.5 1.2c2.9 0 5-1.5 5-5.4V328a5.53 5.53 0 0 1-4.9 2.6c-3.8 0-6.6-3.23-6.6-7.52 0-5.2 3.46-8.2 7-8.2a5.15 5.15 0 0 1 4.87 2.7h.1l.13-2.3zm-2.9 6.1a4 4 0 0 0-.2-1.3 4.05 4.05 0 0 0-3.9-3c-2.7 0-4.6 2.23-4.6 5.8 0 3 1.5 5.58 4.57 5.58a4.12 4.12 0 0 0 3.9-2.9 4.9 4.9 0 0 0 .3-1.5z"/>
  <path fill="#6c5fc7" d="M343.15 124.57h2v71.34h-2z"/>
  <circle cx="344.15" cy="124.76" r="3.76" fill="#6c5fc7"/>
  <circle cx="344.15" cy="195.48" r="7.52" fill="#fff"/>
  <path fill="#6c5fc7" d="M335.63 195.48a8.52 8.52 0 1 1 8.52 8.52 8.53 8.53 0 0 1-8.52-8.52zm15 0a6.52 6.52 0 1 0-6.52 6.52 6.53 6.53 0 0 0 6.6-6.52zm316.97-24.4h2v81.34h-2z"/>
  <circle cx="668.61" cy="252.24" r="3.76" fill="#6c5fc7"/>
  <circle cx="668.61" cy="171.51" r="7.52" fill="#fff"/>
  <path fill="#6c5fc7" d="M677.12 171.5a8.52 8.52 0 1 1-8.52-8.5 8.53 8.53 0 0 1 8.52 8.5zm-15 0a6.52 6.52 0 1 0 6.52-6.5 6.53 6.53 0 0 0-6.52 6.5zm656.94 50.5h2v30.42h-2z"/>
  <circle cx="1320.06" cy="252.24" r="3.76" fill="#6c5fc7"/>
  <circle cx="1320.06" cy="222.43" r="7.52" fill="#fff"/>
  <path fill="#6c5fc7" d="M1328.58 222.43a8.52 8.52 0 1 1-8.52-8.52 8.53 8.53 0 0 1 8.52 8.6zm-15 0a6.52 6.52 0 1 0 6.52-6.52 6.53 6.53 0 0 0-6.52 6.6zm-306.43-87.85h2v50.32h-2z"/>
  <circle cx="1008.15" cy="134.77" r="3.76" fill="#6c5fc7"/>
  <circle cx="1008.15" cy="184.47" r="7.52" fill="#fff"/>
  <path fill="#6c5fc7" d="M999.63 184.47a8.52 8.52 0 1 1 8.52 8.52 8.53 8.53 0 0 1-8.52-8.6zm15 0a6.52 6.52 0 1 0-6.52 6.52 6.53 6.53 0 0 0 6.6-6.6z"/>
</svg>
